PathFileType	4	(X/Y/Z)	C:/Users/opensim2020/Desktop/walking_exp_matlab/subject03_walking16_run.trc																																																																																																																																																	
DataRate	CameraRate	NumFrames	NumMarkers	Units	OrigDataRate	OrigDataStartFrame	OrigNumFrames																																																																																																																																													
100	100	5	49	mm	100	191	131																																																																																																																																													
Frame#	Time	RKNE			RTOE			RWRB			LTHI			RELB			RFRM			RUPA			RASI			LTIB			RWRA			RTHI			LSHO			LTOE			RTIB			LWRA			CLAV			LASI			RSHO			RFHD			STRN			LHEE			RFIN			RBHD			LFRM			C7			LWRB			LFIN			LUPA			LBHD			LELB			RANK			RHEE			RBAK			LPSI			T10			LFHD			RPSI			LKNE			LANK			*39			*40			*41			*42			*43			*44			*45			*46			*47			*48		
		X1	Y1	Z1	X2	Y2	Z2	X3	Y3	Z3	X4	Y4	Z4	X5	Y5	Z5	X6	Y6	Z6	X7	Y7	Z7	X8	Y8	Z8	X9	Y9	Z9	X10	Y10	Z10	X11	Y11	Z11	X12	Y12	Z12	X13	Y13	Z13	X14	Y14	Z14	X15	Y15	Z15	X16	Y16	Z16	X17	Y17	Z17	X18	Y18	Z18	X19	Y19	Z19	X20	Y20	Z20	X21	Y21	Z21	X22	Y22	Z22	X23	Y23	Z23	X24	Y24	Z24	X25	Y25	Z25	X26	Y26	Z26	X27	Y27	Z27	X28	Y28	Z28	X29	Y29	Z29	X30	Y30	Z30	X31	Y31	Z31	X32	Y32	Z32	X33	Y33	Z33	X34	Y34	Z34	X35	Y35	Z35	X36	Y36	Z36	X37	Y37	Z37	X38	Y38	Z38	X39	Y39	Z39	X40	Y40	Z40	X41	Y41	Z41	X42	Y42	Z42	X43	Y43	Z43	X44	Y44	Z44	X45	Y45	Z45	X46	Y46	Z46	X47	Y47	Z47	X48	Y48	Z48	X49	Y49	Z49
																																																																																																																																																				
1	0	-1661.93604	409.43604	327.64511	-1799.85071	30.02068	231.37209	-1520.1261	880.99011	430.90088	-1626.4657	575.24677	49.90657	-1689.04114	1016.37366	492.56577	-1592.45374	940.52106	460.25104	-1698.55176	1109.89917	471.10526	-1652.21802	875.19055	329.93625	-1738.83472	321.36771	72.28988	-1513.20239	924.63483	399.87683	-1702.8457	586.29755	368.32596	-1628.76306	1327.10571	61.80981	-1878.4552	97.41682	109.59414	-1776.87964	254.05753	313.35107	-1636.06689	849.41901	31.69173	-1577.16138	1272.77722	214.18312	-1635.64063	860.70294	94.91457	-1638.89868	1306.21655	369.73288	-1599.36084	1569.68652	285.69125	-1556.27771	1100.85071	206.58508	-1984.15442	249.41527	117.29613	-1452.17053	876.28033	408.76227	-1704.27051	1491.80823	275.53317	-1670.76758	953.22955	-31.54281	-1701.89685	1355.83948	206.11581	-1615.69983	857.41101	-23.16579	-1615.76697	766.80078	-12.01214	-1707.12476	1164.30005	-38.94983	-1693.6134	1489.08447	145.33791	-1733.72595	1054.77673	-63.10279	-1920.01563	97.12204	254.50922	-1975.94092	91.95194	204.77275	-1772.52039	1190.93103	294.19742	-1795.22241	909.64441	125.49344	-1773.49988	1056.38196	197.18777	-1583.70544	1567.24731	153.24724	-1803.05603	929.69489	274.25113	-1568.52673	405.86624	88.06161	-1928.02661	233.71886	86.57961	NaN	NaN	NaN	NaN	NaN	NaN	NaN	NaN	NaN	NaN	NaN	NaN	NaN	NaN	NaN	NaN	NaN	NaN	NaN	NaN	NaN	-1686.54492	1599.88806	195.21626	NaN	NaN	NaN	NaN	NaN	NaN
2	0.01	-1650.94092	407.03381	328.69321	-1799.45923	29.83451	231.54759	-1471.27234	901.40594	422.401	-1589.0979	581.48895	50.85884	-1649.87488	1019.30798	491.34479	-1547.92798	953.61542	454.98032	-1663.36963	1111.69763	471.66864	-1622.82874	874.51813	331.71622	-1683.0321	320.3129	73.42099	-1468.78918	946.42328	392.77448	-1683.45703	585.67615	368.88068	-1601.30981	1329.37634	63.01378	-1806.25525	88.6785	112.8048	-1770.45679	255.20459	314.4808	-1624.50916	856.61542	20.04591	-1547.39929	1274.00549	214.39894	-1606.52161	863.36945	95.69305	-1608.45471	1310.04065	370.10553	-1569.51782	1571.28772	285.8999	-1527.20093	1102.14014	207.45793	-1924.21313	231.22173	117.02878	-1403.79529	902.44049	398.19037	-1674.61328	1493.71313	275.97253	-1657.31763	961.61798	-40.8144	-1672.88269	1357.23022	206.65483	-1605.19519	863.58563	-34.5499	-1610.00171	772.59497	-22.95822	-1687.41663	1173.91321	-42.20972	-1664.14783	1490.68433	145.77469	-1718.21741	1065.73657	-69.97348	-1917.09766	101.85686	255.87405	-1972.8949	98.55238	206.23035	-1741.19177	1192.46887	296.96246	-1765.75208	911.32117	126.6272	-1743.6283	1057.55054	199.17857	-1554.06091	1568.52356	153.36105	-1773.4845	930.38074	275.62192	-1519.22559	417.08002	90.14473	-1866.19775	219.95303	86.99662	NaN	NaN	NaN	NaN	NaN	NaN	NaN	NaN	NaN	NaN	NaN	NaN	NaN	NaN	NaN	NaN	NaN	NaN	NaN	NaN	NaN	-1656.53772	1601.64575	195.3912	NaN	NaN	NaN	NaN	NaN	NaN
3	0.02	-1640.04004	406.41263	329.492	-1798.84888	29.69368	231.67142	-1425.17151	923.98401	413.71405	-1552.97266	588.44269	53.03068	-1611.21326	1023.45984	489.57562	-1505.59656	968.38861	449.41476	-1626.9613	1114.6615	470.50848	-1593.63831	874.96442	333.62817	-1627.83179	319.42703	75.11299	-1426.86511	970.04028	385.8905	-1663.70422	586.38843	369.3746	-1574.20081	1333.2262	64.21394	-1731.92603	80.49263	117.06065	-1763.79761	257.90082	315.50781	-1610.94653	867.12732	11.40537	-1517.44946	1276.54285	214.1208	-1576.70642	866.99097	96.61414	-1577.15356	1314.75134	370.13556	-1539.53381	1573.97375	286.03656	-1497.37366	1104.77136	207.86371	-1862.68701	211.52866	117.61408	-1358.05872	931.01764	387.98798	-1644.922	1496.79712	276.24686	-1643.00232	972.49976	-49.30054	-1643.14795	1359.81812	207.70569	-1594.0708	872.33527	-44.59616	-1601.43359	781.82251	-31.62184	-1666.09265	1184.76636	-44.76294	-1634.46228	1493.56848	146.01602	-1701.17932	1078.31909	-76.27837	-1913.36865	107.19259	256.68048	-1968.94983	106.36386	207.3288	-1709.54468	1195.23389	300.09097	-1735.58032	914.44806	128.29097	-1713.17957	1059.67993	201.44479	-1524.28699	1571.12451	153.43239	-1742.91309	932.27631	277.55838	-1471.89587	429.66998	92.59563	-1801.99402	205.05984	88.29016	NaN	NaN	NaN	NaN	NaN	NaN	NaN	NaN	NaN	NaN	NaN	NaN	NaN	NaN	NaN	NaN	NaN	NaN	NaN	NaN	NaN	-1626.30969	1604.61304	195.5527	NaN	NaN	NaN	NaN	NaN	NaN
4	0.03	-1628.94568	407.88885	330.30115	-1797.85449	29.82998	232.09525	-1381.50989	947.78632	405.56601	-1516.48608	596.12415	54.88459	-1572.90698	1028.88757	487.43228	-1464.39514	984.25549	443.99329	-1589.98816	1118.7085	469.58981	-1562.62415	876.67505	334.89453	-1571.83826	319.57361	76.79016	-1387.24292	994.31152	379.27673	-1643.12964	588.54022	369.84613	-1547.25098	1338.43872	65.51273	-1656.56128	72.87573	122.32175	-1756.44043	262.2287	316.55411	-1596.80115	879.68695	3.60365	-1487.38452	1280.39453	213.49841	-1545.7124	871.7215	97.4243	-1545.28796	1320.43652	369.84799	-1509.49658	1577.70801	286.09369	-1466.87488	1108.81555	207.51398	-1799.2395	190.72447	119.38876	-1315.54443	960.81329	378.63376	-1615.06714	1500.86755	276.29401	-1627.57983	985.07465	-56.83026	-1613.36316	1363.47388	209.16335	-1582.08386	883.20007	-52.94564	-1590.67432	792.76135	-38.12704	-1643.29932	1196.58936	-46.99397	-1604.70386	1497.62732	146.11246	-1682.56274	1092.40479	-81.42474	-1908.2478	114.4814	258.42532	-1963.27405	115.27779	208.41774	-1677.58582	1199.02234	303.23346	-1704.7583	918.71021	130.40691	-1682.21802	1062.677	204.09915	-1494.2926	1574.83643	153.47021	-1711.28894	935.12933	280.02029	-1426.90869	442.75446	95.20003	-1736.58533	189.0952	90.70815	NaN	NaN	NaN	NaN	NaN	NaN	NaN	NaN	NaN	NaN	NaN	NaN	NaN	NaN	NaN	NaN	NaN	NaN	NaN	NaN	NaN	-1596.10388	1608.71753	195.70508	NaN	NaN	NaN	NaN	NaN	NaN
5	0.04	-1617.27185	411.28555	330.96756	-1796.80872	29.8269	232.19835	-1340.57617	972.09406	397.71667	-1479.7821	604.47241	56.52571	-1535.02087	1035.57629	485.12119	-1425.24988	1000.82642	438.36902	-1552.45325	1123.75574	468.06317	-1530.29761	879.49628	335.94827	-1517.849	318.52863	79.31197	-1350.13269	1018.6333	372.93759	-1621.23096	592.13696	370.36807	-1520.39417	1344.88635	66.90475	-1580.15613	66.16659	128.38734	-1748.1781	268.23413	317.79337	-1581.6283	893.51819	-2.34137	-1457.31848	1285.45325	212.60777	-1514.25549	877.41248	98.92121	-1513.18335	1326.98242	369.3031	-1479.37268	1582.33362	286.02322	-1435.90833	1113.97583	206.7348	-1733.49487	169.15192	121.68259	-1275.979	990.80182	370.14911	-1585.10632	1505.78357	276.21133	-1611.05237	998.88879	-62.87273	-1583.52979	1367.88293	210.6335	-1568.57056	895.70337	-59.41977	-1577.75439	805.84265	-42.88204	-1619.20129	1209.01746	-48.73485	-1574.8595	1502.62585	146.03738	-1662.67029	1107.48889	-85.58257	-1901.81567	122.68013	259.98325	-1955.90955	125.73898	210.02446	-1645.13684	1203.52502	306.27151	-1673.32019	923.81641	132.80151	-1650.82996	1066.45508	207.21597	-1464.15967	1579.50647	153.45343	-1678.6853	938.6333	282.77869	-1384.33215	455.57809	97.76558	-1671.67773	173.93356	93.47018	NaN	NaN	NaN	NaN	NaN	NaN	NaN	NaN	NaN	NaN	NaN	NaN	NaN	NaN	NaN	NaN	NaN	NaN	NaN	NaN	NaN	-1565.90125	1613.70349	195.76103	NaN	NaN	NaN	NaN	NaN	NaN
